<?xml version="1.0" encoding="utf-8"?>
<!-- Generator: Adobe Illustrator 22.1.0, SVG Export Plug-In . SVG Version: 6.00 Build 0)  -->
<svg version="1.1" id="Livello_1" xmlns="http://www.w3.org/2000/svg" xmlns:xlink="http://www.w3.org/1999/xlink" x="0px" y="0px"
	 viewBox="0 0 595.3 841.9" style="enable-background:new 0 0 595.3 841.9;" xml:space="preserve">
<style type="text/css">
	.st0{fill:#FFFFFF;}
</style>
<path class="st0" d="M324.5,303.3H178.2c-5.4,0-9.8,4.4-9.8,9.8v199.8c0,5.4,4.4,9.8,9.8,9.8h146.3c5.4,0,9.8-4.4,9.8-9.8V313.1
	C334.3,307.7,329.9,303.3,324.5,303.3z M321,499.7c0,5.4-4.4,9.8-9.8,9.8h-123c-5.4,0-9.8-4.4-9.8-9.8V326.3c0-5.4,4.4-9.8,9.8-9.8
	h123c5.4,0,9.8,4.4,9.8,9.8V499.7z"/>
<path class="st0" d="M299.6,533.8V290.1c-0.2-7.9-10.8-8.1-10.8-8.1c-112,12.3-117.7,23.8-117.7,23.8c-1.7,1.8-2.7,4.1-2.7,6.7
	v200.3c0,0-0.6,9.2,5.4,10.7c0,0,118.5,20,122.8,19.8S299.6,533.8,299.6,533.8z M280.5,419.3c-3.6,0-6.5-2.9-6.5-6.5
	s2.9-6.5,6.5-6.5s6.5,2.9,6.5,6.5S284.1,419.3,280.5,419.3z"/>
</svg>
