<?xml version="1.0" encoding="utf-8"?>
<!-- Generator: Adobe Illustrator 22.1.0, SVG Export Plug-In . SVG Version: 6.00 Build 0)  -->
<svg version="1.1" id="Livello_1" xmlns="http://www.w3.org/2000/svg" xmlns:xlink="http://www.w3.org/1999/xlink" x="0px" y="0px"
	 viewBox="0 0 595.3 841.9" style="enable-background:new 0 0 595.3 841.9;" xml:space="preserve">
<style type="text/css">
	.st0{fill:#0033CC;}
</style>
<path class="st0" d="M323.165,314.946l-114.723,23.378c-1.415,0.288-2.441,1.643-2.441,3.222v215.499
	c0,1.613,1.069,2.985,2.521,3.237l114.723,19.856c1.813,0.314,3.452-1.223,3.452-3.237V318.168
	C326.697,316.118,325.002,314.572,323.165,314.946z M308.884,454.724c-2.883,0-5.221-2.564-5.221-5.728
	c0-3.163,2.338-5.728,5.221-5.728c2.884,0,5.221,2.564,5.221,5.728C314.105,452.16,311.768,454.724,308.884,454.724z"/>
</svg>
