<?xml version="1.0" encoding="utf-8"?>
<!-- Generator: Adobe Illustrator 22.1.0, SVG Export Plug-In . SVG Version: 6.00 Build 0)  -->
<svg version="1.1" id="Livello_1" xmlns="http://www.w3.org/2000/svg" xmlns:xlink="http://www.w3.org/1999/xlink" x="0px" y="0px"
	 viewBox="0 0 595.3 841.9" style="enable-background:new 0 0 595.3 841.9;" xml:space="preserve">
<style type="text/css">
	.st0{fill:#FFFFFF;}
</style>
<path class="st0" d="M330.05,305.223H170.25c-0.688,0-1.25,0.567-1.25,1.26v213.813c0,0.693,0.563,1.26,1.25,1.26H330.05
	c0.688,0,1.25-0.567,1.25-1.26V306.483C331.3,305.79,330.737,305.223,330.05,305.223z M325.789,514.697
	c0,0.656-0.525,1.193-1.166,1.193H175.677c-0.641,0-1.166-0.537-1.166-1.193V312.333c0-0.656,0.524-1.193,1.166-1.193h148.947
	c0.641,0,1.166,0.537,1.166,1.193V514.697z"/>
</svg>
